<mxfile host="app.diagrams.net" modified="2023-10-17T04:07:31.691Z" agent="Mozilla/5.0 (Windows NT 10.0; Win64; x64) AppleWebKit/537.36 (KHTML, like Gecko) Chrome/118.0.0.0 Safari/537.36 Edg/118.0.2088.46" version="22.0.4" etag="dCh9cURP43bVv2gpg0Ac" type="github">
  <diagram name="Page-1" id="HCEL8bmxSWL_aNs0MRLH">
    <mxGraphModel>
      <root>
        <mxCell id="0" />
        <mxCell id="1" parent="0" />
      </root>
    </mxGraphModel>
  </diagram>
</mxfile>
